HIERARCHY
ROOT root
{
	OFFSET 0.000000 0.000000 0.000000
	CHANNELS 6 Xposition Yposition Zposition Zrotation Yrotation Xrotation
	JOINT lhip
	{
		OFFSET 0.058581 -0.082280 -0.017664
		CHANNELS 3 Zrotation Yrotation Xrotation
		JOINT lknee
		{
			OFFSET 0.043451 -0.386469 0.008037
			CHANNELS 3 Zrotation Yrotation Xrotation
			JOINT lankle
			{
				OFFSET -0.014790 -0.426874 -0.037428
				CHANNELS 3 Zrotation Yrotation Xrotation
				JOINT ltoe
				{
					OFFSET 0.041054 -0.060286 0.122042
					CHANNELS 3 Zrotation Yrotation Xrotation
					End Site
					{
						OFFSET 0.000000 0.000000 0.000000
					}
				}
			}
		}
	}
	JOINT rhip
	{
		OFFSET -0.060310 -0.090513 -0.013543
		CHANNELS 3 Zrotation Yrotation Xrotation
		JOINT rknee
		{
			OFFSET -0.043257 -0.383688 -0.004843
			CHANNELS 3 Zrotation Yrotation Xrotation
			JOINT rankle
			{
				OFFSET 0.019056 -0.420046 -0.034562
				CHANNELS 3 Zrotation Yrotation Xrotation
				JOINT rtoe
				{
					OFFSET -0.034840 -0.062106 0.130323
					CHANNELS 3 Zrotation Yrotation Xrotation
					End Site
					{
						OFFSET 0.000000 0.000000 0.000000
					}
				}
			}
		}
	}
	JOINT lowerback
	{
		OFFSET 0.004439 0.124404 -0.038385
		CHANNELS 3 Zrotation Yrotation Xrotation
		JOINT upperback
		{
			OFFSET 0.004488 0.137956 0.026820
			CHANNELS 3 Zrotation Yrotation Xrotation
			JOINT chest
			{
				OFFSET -0.002265 0.056032 0.002855
				CHANNELS 3 Zrotation Yrotation Xrotation
				JOINT lowerneck
				{
					OFFSET -0.013390 0.211636 -0.033468
					CHANNELS 3 Zrotation Yrotation Xrotation
					JOINT upperneck
					{
						OFFSET 0.010113 0.088937 0.050410
						CHANNELS 3 Zrotation Yrotation Xrotation
						End Site
						{
							OFFSET 0.000000 0.000000 0.000000
						}
					}
				}
				JOINT lclavicle
				{
					OFFSET 0.071702 0.114000 -0.018898
					CHANNELS 3 Zrotation Yrotation Xrotation
					JOINT lshoulder
					{
						OFFSET 0.122921 0.045205 -0.019046
						CHANNELS 3 Zrotation Yrotation Xrotation
						JOINT lelbow
						{
							OFFSET 0.255332 -0.015649 -0.022946
							CHANNELS 3 Zrotation Yrotation Xrotation
							JOINT lwrist
							{
								OFFSET 0.265709 0.012698 -0.007375
								CHANNELS 3 Zrotation Yrotation Xrotation
								End Site
								{
									OFFSET 0.000000 0.000000 0.000000
								}
							}
						}
					}
				}
				JOINT rclavicle
				{
					OFFSET -0.082954 0.112472 -0.023707
					CHANNELS 3 Zrotation Yrotation Xrotation
					JOINT rshoulder
					{
						OFFSET -0.113228 0.046853 -0.008472
						CHANNELS 3 Zrotation Yrotation Xrotation
						JOINT relbow
						{
							OFFSET -0.260127 -0.014369 -0.031269
							CHANNELS 3 Zrotation Yrotation Xrotation
							JOINT rwrist
							{
								OFFSET -0.269108 0.006794 -0.006027
								CHANNELS 3 Zrotation Yrotation Xrotation
								End Site
								{
									OFFSET 0.000000 0.000000 0.000000
								}
							}
						}
					}
				}
			}
		}
	}
}
MOTION
Frames: 14
Frame Time: 0.033333
2.225984 0.589820 0.988118 -77.006951 0.833901 92.575186 4.324195 -1.323561 -1.651038 -8.632755 -0.781972 -2.430378 5.585374 4.508432 -9.849137 0.000000 -0.000000 0.000000 -2.247960 -1.072618 -8.165523 8.536286 -5.419871 10.358483 -0.352804 1.693319 -8.045417 0.000000 -0.000000 0.000000 1.959704 2.911448 -0.169580 -0.157069 1.528842 0.430398 -0.191411 2.316261 -4.419839 1.660200 27.082920 4.443086 -0.124460 24.284824 -0.726083 -26.627839 -2.387854 5.153855 -63.212956 -6.475659 12.464393 10.274596 -21.881431 -2.125703 -16.074649 -17.094341 -23.371270 26.937420 3.651496 10.045222 60.134811 9.003337 17.568346 -8.142602 24.030462 14.926628 19.845187 7.046391 -1.966788 
2.226857 0.590011 0.988149 -76.846450 0.861060 92.556359 4.366472 -1.213158 -1.814923 -8.669608 -1.170041 -2.242031 5.513905 4.664661 -9.864396 0.000000 -0.000000 0.000000 -2.169597 -0.989359 -8.178598 8.570249 -4.986818 10.292117 0.126633 0.927750 -8.048586 0.000000 -0.000000 0.000000 1.982636 2.941229 -0.208771 -0.249360 1.729126 0.255168 -0.102750 2.430358 -4.072503 1.555761 27.325844 3.823524 -0.187509 24.727023 -0.754885 -26.682039 -2.570739 5.101636 -63.082477 -6.174584 12.962625 9.266458 -22.483680 -0.063510 -13.249673 -14.860163 -20.596878 26.767531 3.866833 9.879546 60.220346 8.800348 17.662870 -7.957744 23.900452 14.487598 18.302837 6.882221 -1.861343 
2.227659 0.590217 0.988104 -76.677485 0.819076 92.536720 4.312289 -1.038692 -1.971030 -8.659994 -1.529369 -2.041533 5.595517 4.713521 -9.848504 0.000000 -0.000000 0.000000 -2.173513 -1.150749 -8.259829 8.526093 -4.853751 10.427759 0.212564 0.756258 -8.115541 0.000000 -0.000000 0.000000 1.928704 3.079148 -0.307327 -0.275637 1.830005 0.292827 -0.112293 2.527884 -3.966254 1.435577 27.481144 3.582956 -0.306272 24.950880 -1.236169 -26.735744 -2.754039 5.045034 -62.860330 -5.647988 13.571349 8.195135 -23.305101 2.181119 -9.874482 -12.493751 -18.170098 26.766530 3.960920 9.878239 60.131150 8.685357 17.578119 -7.669497 23.866159 14.314485 16.733581 6.795426 -1.754562 
2.229154 0.590716 0.987813 -76.486533 0.761178 92.498759 4.250710 -0.787416 -2.199885 -8.652901 -1.995479 -1.710213 5.723862 4.730539 -9.881464 0.000000 -0.000000 0.000000 -2.217383 -1.410496 -8.348896 8.498627 -4.693218 10.654383 0.347730 0.512835 -8.243727 0.000000 -0.000000 0.000000 1.865980 3.237506 -0.362928 -0.248116 1.928130 0.362185 -0.120190 2.622042 -3.924115 1.224129 27.487615 3.456710 -0.527017 25.130179 -1.863322 -26.816074 -2.880280 4.977072 -62.667443 -4.898241 14.308653 6.994405 -24.380831 5.040473 -5.431020 -9.707935 -14.712128 26.935960 4.069365 9.923936 59.633125 8.505944 17.256952 -7.144875 23.802406 14.272525 15.062389 6.673741 -1.436877 
2.229974 0.590914 0.987696 -76.282443 0.753718 92.442404 4.252102 -0.784544 -2.323717 -8.658328 -2.164899 -1.486907 5.717170 4.675851 -9.946658 0.000000 -0.000000 0.000000 -2.208136 -1.490475 -8.368878 8.457934 -4.728138 10.783613 0.344424 0.377258 -8.352333 0.000000 -0.000000 0.000000 1.867856 3.286880 -0.325104 -0.244392 1.975451 0.394522 -0.117629 2.636697 -3.915074 1.084900 27.479852 3.308470 -0.651137 25.168929 -2.156033 -26.851237 -2.884321 4.945144 -62.630246 -4.683188 14.464624 6.769955 -24.650325 5.689553 -4.459744 -9.162598 -13.917922 27.004583 4.122362 9.956699 59.444562 8.443803 17.166123 -7.004973 23.736751 14.345416 14.872614 6.613840 -1.337403 
2.231064 0.591154 0.987665 -75.924738 0.752530 92.346965 4.280177 -0.910597 -2.521299 -8.695786 -2.356714 -1.099512 5.699128 4.589325 -10.109627 0.000000 -0.000000 0.000000 -2.185160 -1.560367 -8.423522 8.402895 -4.850568 11.024640 0.322676 0.170740 -8.512962 0.000000 -0.000000 0.000000 1.893451 3.300338 -0.188080 -0.249932 2.022411 0.354056 -0.125095 2.614007 -3.867167 0.912874 27.433609 3.008070 -0.810740 25.141956 -2.405845 -26.892745 -2.782966 4.872719 -62.582050 -4.581797 14.521629 6.680063 -24.728912 5.888196 -4.168104 -9.225131 -13.986610 27.070096 4.123347 9.954483 59.315613 8.476141 17.170708 -6.948598 23.654526 14.338713 14.718251 6.634686 -1.194904 
2.231965 0.591521 0.987800 -75.583355 0.749605 92.247469 4.325649 -0.995757 -2.712230 -8.773360 -2.596090 -0.668335 5.697104 4.490352 -10.322882 0.000000 -0.000000 0.000000 -2.140092 -1.660374 -8.551844 8.330888 -4.949773 11.406849 0.289548 0.002464 -8.709959 0.000000 -0.000000 0.000000 1.878468 3.325390 -0.003221 -0.274515 2.066979 0.270334 -0.121907 2.619972 -3.885161 0.765519 27.230339 2.766046 -0.858710 25.060080 -2.604417 -26.915102 -2.742133 4.870259 -62.530597 -4.441911 14.492168 6.619626 -24.680258 6.011083 -3.970833 -9.268296 -14.029322 27.122892 4.152235 9.869595 59.267901 8.335211 17.077000 -6.862376 23.704001 14.432362 14.742165 6.621486 -1.095707 
2.232373 0.592005 0.987914 -75.246224 0.729279 92.170759 4.378639 -1.124314 -2.822653 -8.866035 -2.877176 -0.378127 5.690224 4.413373 -10.489499 0.000000 -0.000000 0.000000 -2.101024 -1.672944 -8.634840 8.267486 -5.037431 11.702063 0.212760 -0.214448 -8.892185 0.000000 -0.000000 0.000000 1.780047 3.353431 -0.016127 -0.264478 2.084514 0.314631 -0.113549 2.580337 -3.897944 0.781642 27.047519 2.667102 -0.913800 24.901028 -2.753111 -26.946083 -2.675002 4.925355 -62.441313 -4.317174 14.475297 6.597260 -24.583979 6.087878 -3.826305 -9.262260 -13.994944 27.213671 4.158859 9.832959 59.217531 8.307208 17.094824 -6.781889 23.705443 14.562862 14.673842 6.642486 -1.019419 
2.232702 0.592693 0.987970 -74.805581 0.724455 92.185482 4.459242 -1.285752 -2.998754 -8.942648 -3.178808 -0.185676 5.660558 4.313126 -10.583002 0.000000 -0.000000 0.000000 -2.007401 -1.628311 -8.815097 8.168006 -5.166957 11.987598 0.113805 -0.537760 -9.101009 0.000000 -0.000000 0.000000 1.656987 3.330746 -0.050945 -0.226897 2.070758 0.273063 -0.108277 2.495380 -3.870381 0.798118 26.846879 2.440404 -0.949992 24.643707 -2.743636 -26.973836 -2.508933 4.920391 -62.327289 -4.224344 14.466533 6.520414 -24.495937 6.198610 -3.615587 -9.220674 -13.951308 27.288656 4.073200 9.692115 59.212112 8.288072 17.165152 -6.755515 23.772308 14.638718 14.454166 6.695700 -0.943801 
2.232952 0.593769 0.987937 -74.201039 0.702414 92.291862 4.535920 -1.428507 -3.149313 -8.974583 -3.491717 -0.264923 5.615513 4.128289 -10.553788 0.000000 -0.000000 0.000000 -1.891934 -1.587486 -9.197675 8.047443 -5.358335 12.465090 -0.003464 -0.940070 -9.403382 0.000000 -0.000000 0.000000 1.436267 3.266072 -0.161815 -0.151010 2.050739 0.160385 -0.096372 2.357566 -3.866472 0.908059 26.284772 2.287748 -1.029705 24.059016 -2.425459 -27.008045 -2.203063 4.908165 -62.128642 -4.120150 14.469378 6.380105 -24.418459 6.356709 -3.635990 -9.207977 -13.784909 27.325128 3.961543 9.427993 59.240202 8.161239 17.319666 -6.720466 23.803986 14.714610 14.647240 6.636532 -0.994584 
2.233114 0.594763 0.987819 -73.665797 0.686046 92.406524 4.560633 -1.489219 -3.277799 -8.910549 -3.773955 -0.437403 5.626194 3.980918 -10.442590 0.000000 -0.000000 0.000000 -1.826510 -1.557776 -9.506213 8.038529 -5.500634 12.770871 -0.130874 -1.305011 -9.638252 0.000000 -0.000000 0.000000 1.281550 3.199795 -0.219686 -0.068558 2.027601 -0.018634 -0.114544 2.255811 -3.862650 1.014198 25.274026 2.295498 -1.138830 23.028407 -1.859914 -27.102712 -1.965211 4.947004 -61.896408 -4.111391 14.489006 6.240263 -24.318708 6.464238 -3.645832 -9.240544 -13.565135 27.433439 3.908585 9.297366 59.134950 8.065720 17.379738 -6.789234 23.833761 14.595000 14.443454 6.682337 -0.919462 
2.233217 0.595800 0.987696 -73.084966 0.640808 92.520438 4.541518 -1.510362 -3.400940 -8.811674 -4.102156 -0.623286 5.641314 3.835676 -10.309944 0.000000 -0.000000 0.000000 -1.803883 -1.540952 -9.704023 8.061984 -5.621202 12.916365 -0.224940 -1.679869 -9.806140 0.000000 -0.000000 0.000000 1.164873 3.110249 -0.214543 -0.005661 1.994092 -0.262888 -0.184529 2.111539 -3.830975 1.058169 23.610049 2.326423 -1.205802 21.320029 -0.994342 -27.166918 -1.624135 4.915836 -61.664256 -4.171572 14.513186 6.062562 -24.205613 6.641432 -3.770603 -9.306872 -13.324107 27.449198 3.870102 9.010224 59.131472 7.941125 17.462544 -6.826796 23.760961 14.499492 14.376051 6.679054 -0.783589 
2.233371 0.596943 0.987582 -72.486972 0.583732 92.586353 4.539711 -1.470430 -3.526840 -8.761469 -4.397724 -0.724514 5.587631 3.617066 -10.213119 0.000000 -0.000000 0.000000 -1.796424 -1.595019 -9.885542 8.106824 -5.753036 13.123733 -0.320388 -1.990751 -10.065907 0.000000 -0.000000 0.000000 1.112300 3.020347 -0.072767 0.047233 1.964951 -0.566804 -0.304669 1.951281 -3.758936 0.985545 21.298022 2.254838 -1.329598 18.880902 0.069934 -27.376497 -1.231167 4.806892 -61.284111 -4.334398 14.510125 5.839587 -24.026993 6.771897 -3.884925 -9.428584 -12.976061 27.475830 3.826280 8.628040 59.125363 7.826131 17.490786 -6.907757 23.616973 14.317146 14.296318 6.641273 -0.584893 
2.233681 0.598206 0.987493 -71.988889 0.494921 92.621143 4.513318 -1.427756 -3.711863 -8.738094 -4.660196 -0.682777 5.537411 3.429476 -10.187028 0.000000 -0.000000 0.000000 -1.813460 -1.656014 -10.240923 8.131784 -5.906665 13.690686 -0.406941 -2.156283 -10.477729 0.000000 -0.000000 0.000000 1.070147 2.947318 0.132827 0.096114 1.959324 -0.888881 -0.465092 1.831835 -3.717057 0.880744 18.485278 2.232518 -1.423352 15.777957 1.390100 -27.594788 -0.949041 4.821231 -60.987659 -4.566049 14.481854 5.817310 -23.798830 6.597247 -3.930796 -9.530363 -12.599349 27.497288 3.870767 8.325840 59.109538 7.723989 17.390126 -6.993460 23.502043 14.063015 14.283264 6.581533 -0.438464 
